<?xml version="1.0" encoding="utf-8"?>
<!-- Generator: Adobe Illustrator 16.0.4, SVG Export Plug-In . SVG Version: 6.00 Build 0)  -->
<!DOCTYPE svg PUBLIC "-//W3C//DTD SVG 1.1 Basic//EN" "http://www.w3.org/Graphics/SVG/1.1/DTD/svg11-basic.dtd">
<svg version="1.1" baseProfile="basic" id="Layer_1"
	 xmlns="http://www.w3.org/2000/svg" xmlns:xlink="http://www.w3.org/1999/xlink" x="0px" y="0px" width="718.656px"
	 height="98.859px" viewBox="0 0 718.656 98.859" xml:space="preserve">
<g>
	<path d="M81.563,47.083h1.923v16.244l-0.356,21.7c0,3.902,1.583,7.157,4.748,9.766c3.165,2.61,7.507,3.914,13.028,3.914
		c1.524,0,3.011-0.122,4.462-0.362c1.452-0.243,3.105-0.736,4.962-1.483c1.57-1.494,3.403-3.229,5.497-5.207l2.569-2.373l-1.14-2.66
		c-1.52,0.308-2.768,0.514-3.74,0.624c-0.975,0.11-2.27,0.141-3.883,0.1c-2.661,0-4.691-0.58-6.091-1.741
		c-1.402-1.16-2.198-2.769-2.387-4.827c-0.144-1.226-0.214-5.211-0.214-11.955V46.885h6.911l6.981,0.132
		c0.475,0,0.998-0.044,1.567-0.132l1.212-8.866c-3.23,0.438-8.003,0.656-14.321,0.656h-2.351l0.641-11.494l0.5-7.553l0.712-6.83
		l-1.853-1.314c-5.795,2.496-8.81,3.789-9.049,3.875c-1.376,0.482-4.369,1.424-8.977,2.824c0.381,4.64,0.57,8.538,0.57,11.69v8.802
		c-0.95,0.693-1.947,1.343-2.992,1.948l-6.412,3.7v2.956C76.458,47.148,78.951,47.083,81.563,47.083"/>
	<path d="M65.866,17.719c0.309-2.73,0.795-5.515,1.461-8.354l-0.57-1.572c-3.468-1.571-7.564-2.774-12.29-3.603
		c-4.727-0.829-9.607-1.245-14.641-1.245c-4.844,0-9.572,0.492-14.179,1.478c-4.607,0.985-8.739,2.617-12.396,4.894
		c-3.658,2.278-6.603,5.485-8.834,9.623C2.184,23.079,1.07,27.602,1.07,32.506c0,3.503,0.616,6.777,1.852,9.821
		c1.235,3.044,3.099,5.639,5.593,7.785c2.493,2.146,5.781,3.788,9.866,4.926c2.707,0.746,8.359,1.95,16.956,3.617
		c5.985,1.272,10.164,2.5,12.54,3.685c2.375,1.184,4.12,2.763,5.237,4.735c1.115,1.975,1.674,4.343,1.674,7.105
		c0,3.29-0.796,6.228-2.387,8.815c-1.593,2.588-4.157,4.615-7.694,6.086c-3.539,1.469-7.565,2.203-12.077,2.203
		c-5.178,0-9.951-1.031-14.32-3.097c-4.37-2.063-7.457-4.457-9.262-7.18c-0.618-4.699-0.88-8.628-0.784-11.791H2.28
		C2.232,79.418,1.472,87.015,0,92.007c5.461,2.453,10.474,4.182,15.034,5.188c4.56,1.006,9.76,1.512,15.602,1.512
		c7.979,0,14.818-1.052,20.519-3.154c3.562-1.313,7.028-3.295,10.401-5.945c3.372-2.647,6.009-5.571,7.909-8.769
		c2.517-4.249,3.775-9.175,3.775-14.782c0-3.198-0.45-6.076-1.353-8.638c-0.901-2.562-2.05-4.686-3.449-6.373
		c-1.399-1.686-3.285-3.176-5.656-4.468c-2.371-1.292-5.479-2.397-9.322-3.319c-1.47-0.305-4.66-0.853-9.569-1.642
		c-4.909-0.79-8.74-1.447-11.491-1.975c-3.605-0.875-6.332-1.839-8.183-2.893c-1.85-1.053-3.274-2.477-4.269-4.275
		c-0.996-1.799-1.52-4.147-1.566-7.041c0-4.034,1.765-7.554,5.297-10.56c3.532-3.002,8.524-4.505,14.972-4.505
		c4.505,0,8.571,0.746,12.198,2.234c3.627,1.489,6.176,3.196,7.646,5.122c0.378,2.102,0.615,5.693,0.711,10.771h5.985
		C65.332,24.041,65.557,20.448,65.866,17.719"/>
	<path d="M129.074,45.201c0.807,0.306,1.388,0.764,1.746,1.376c0.355,0.612,0.534,2.187,0.534,4.723l0.142,13.842
		c0,3.543-0.03,6.429-0.089,8.658c-0.178,4.201-0.268,6.626-0.268,7.283c0,5.38,1.831,9.687,5.496,12.923
		c3.663,3.237,8.705,4.854,15.128,4.854c3.331,0,6.637-0.548,9.92-1.642l8.063-7.044c1.38-1.142,2.997-2.392,4.853-3.753
		c0,2.547-0.024,4.236-0.071,5.068l-0.427,5.07l0.498,0.526l13.466-0.328l14.676,0.328v-5.254c-4.94-0.218-7.86-0.546-8.764-0.985
		c-0.522-0.305-0.878-0.854-1.068-1.641c-0.427-1.883-0.642-6.831-0.642-14.846V60.898c0-1.007,0.19-5.802,0.57-14.383l0.784-12.086
		l-1.354-0.722c-6.364,1.904-10.875,3.123-13.536,3.653c-2.66,0.533-7.671,1.241-15.032,2.125v4.992
		c5.082,0.262,7.979,0.504,8.692,0.722c0.713,0.217,1.187,0.523,1.425,0.915c0.427,0.611,0.64,2.424,0.64,5.436l0.143,9.299v11.2
		c0,3.581-0.29,5.938-0.87,7.073c-0.92,1.747-2.541,3.448-4.864,5.103c-2.322,1.656-5.191,2.484-8.604,2.484
		c-2.988,0-5.381-0.7-7.183-2.104c-1.803-1.399-2.94-3.479-3.414-6.24c-0.332-2.101-0.498-6.281-0.498-12.542v-7.357
		c0-7.356,0.355-15.368,1.068-24.038l-0.999-0.722c-6.475,2.038-11.785,3.456-15.926,4.252c-4.144,0.797-8.261,1.307-12.355,1.526
		v4.992C125.558,44.653,128.266,44.895,129.074,45.201"/>
	<path d="M250.605,62.145c0,8.714-0.248,13.925-0.746,15.632c-0.498,1.708-2.062,3.481-4.692,5.32
		c-2.631,1.84-5.699,2.758-9.204,2.758c-4.646,0-8.341-1.597-11.089-4.794c-3.695-4.335-5.543-10.486-5.543-18.456
		c0-4.29,0.508-8.078,1.527-11.362c1.019-3.284,2.558-5.658,4.62-7.126c2.061-1.468,4.727-2.202,7.996-2.202
		c3.744,0,7.179,0.833,10.308,2.496c1.659,0.877,3.79,2.758,6.397,5.649L250.605,62.145z M270.696,91.176
		c-0.76-0.264-1.306-0.668-1.638-1.216c-0.333-0.548-0.571-2.047-0.714-4.5c-0.236-3.457-0.355-6.676-0.355-9.654v-6.108
		c0-20.578,0.067-36.585,0.201-48.011c0.044-2.058,0.333-8.956,0.868-20.688l-1.852-0.986c-8.646,2.924-18.026,4.849-28.143,5.779
		v4.861c5.224,0.13,8.146,0.262,8.764,0.393c0.616,0.132,1.092,0.416,1.423,0.853c0.43,0.568,0.688,1.987,0.784,4.256
		c0.238,4.719,0.357,8.736,0.357,12.055c0,2.837-0.072,5.525-0.214,8.058c-3.652-1.312-6.225-2.123-7.719-2.43
		c-1.494-0.306-3.38-0.458-5.656-0.458c-3.653,0-6.629,0.404-8.929,1.214c-2.301,0.81-6.096,2.922-11.383,6.338
		c-5.289,3.415-8.478,5.736-9.567,6.962c-1.52,1.666-2.848,4.028-3.985,7.092c-1.519,4.03-2.276,8.605-2.276,13.728
		c0,9.24,2.584,16.518,7.754,21.839c5.169,5.32,11.69,7.979,19.564,7.979c2.988,0,5.383-0.328,7.185-0.984
		c1.47-0.92,2.964-2.036,4.482-3.35c3.889-3.154,7.47-5.998,10.743-8.538l-0.143,5.384l-0.356,5.189l0.642,0.526l12.857-0.196
		l14.999,0.196v-4.729C274.021,91.722,271.456,91.438,270.696,91.176"/>
	<path d="M308.305,59.551c-6.555,0-11.233-0.196-14.035-0.589c-0.19-6.676,0.949-11.477,3.42-14.401
		c2.422-2.88,5.484-4.32,9.189-4.32c3.61,0,6.557,1.375,8.835,4.124c2.233,2.793,3.253,7.659,3.064,14.598
		C315.975,59.354,312.484,59.551,308.305,59.551 M334.024,84.376c-3.705,1.71-6.697,2.836-8.978,3.383
		c-2.279,0.547-4.771,0.821-7.48,0.821c-6.269,0-11.54-2.002-15.816-6.01c-4.275-4.006-6.602-9.468-6.982-16.388h4.704
		c0.759,0,1.446-0.021,2.064-0.064c0.617-0.042,3.848-0.088,9.689-0.131c5.843-0.044,10.544-0.196,14.106-0.458
		c1.141-0.044,3.324-0.352,6.555-0.921c2.423-0.437,4.227-0.831,5.415-1.182c0.095-1.138,0.143-2.32,0.143-3.546
		c0-5.43-0.845-10.048-2.529-13.858c-1.688-3.81-4.571-6.938-8.657-9.393c-4.085-2.451-9.309-3.678-15.674-3.678
		c-4.512,0-8.431,0.68-11.755,2.038c-1.806,0.744-4.702,2.32-8.691,4.728c-3.99,2.408-6.461,4.052-7.41,4.928
		c-1.521,1.4-2.85,3.676-3.989,6.83c-1.664,4.51-2.494,9.632-2.494,15.368c0,3.941,0.427,7.575,1.284,10.902
		c0.853,3.328,2.243,6.262,4.166,8.801c1.925,2.54,4.156,4.686,6.697,6.437s5.604,3.132,9.19,4.138
		c3.586,1.006,7.729,1.51,12.434,1.51c3.941,0,7.456-0.372,10.544-1.114c4.131-1.052,8.145-2.671,12.04-4.861l3.134-6.437
		L334.024,84.376z"/>
	<path d="M418.136,91.87c-2.2-0.132-3.625-0.449-4.271-0.955c-0.645-0.507-1.075-1.638-1.29-3.396
		c-0.216-1.756-0.348-6.347-0.395-13.773l-0.07-6.788c0-0.747,0.022-1.384,0.07-1.911c0.094-1.361,0.143-4.547,0.143-9.556
		c0-4.437-0.356-7.699-1.068-9.786c-0.712-2.087-1.948-4.087-3.705-5.998c-1.758-1.91-3.907-3.393-6.448-4.449
		c-2.54-1.053-6.353-1.581-11.434-1.581c-1.901,0-3.384,0.098-4.453,0.294c-1.069,0.198-2.388,0.58-3.954,1.148l-12.967,9.603
		V34.139l-1.924-0.79c-3.419,1.446-6.483,2.496-9.19,3.154c-2.707,0.656-8.383,1.666-17.027,3.021v5.124
		c4.495,0.13,7.2,0.349,8.108,0.655c0.574,0.176,0.993,0.448,1.256,0.82c0.262,0.372,0.467,1.954,0.61,4.747
		c0.237,5.545,0.355,10.262,0.355,14.146v8.58c0,2.751-0.024,4.737-0.07,5.962l-0.285,5.828c-0.048,2.314-0.311,3.886-0.785,4.717
		c-0.332,0.523-0.83,0.895-1.494,1.111c-1.426,0.482-3.99,0.723-7.695,0.723v5.122c4.797-0.175,11.542-0.263,20.234-0.263
		c7.503,0,13.843,0.088,19.022,0.263v-5.122c-3.398-0.263-5.382-0.438-5.947-0.525c-1.652-0.306-2.76-0.634-3.325-0.984
		c-0.378-0.218-0.684-0.566-0.92-1.049c-0.331-0.656-0.52-2.011-0.566-4.064c-0.238-4.634-0.356-8.546-0.356-11.738V62.559
		c-0.049-6.118,0.094-9.616,0.428-10.49c0.569-1.487,1.945-2.962,4.131-4.433c2.186-1.466,4.939-2.201,8.265-2.201
		c3.324,0,5.984,0.734,7.979,2.2c1.995,1.468,3.313,3.406,3.955,5.812c0.642,2.41,0.962,7.445,0.962,15.107v5.188l-0.355,10.772
		c-0.524,6.655-0.832,10.441-0.926,11.361l1.284,1.183c3.476-0.307,7.57-0.459,12.285-0.459c4.094,0,9.377,0.152,15.854,0.459
		v-4.869C420.289,92.021,418.948,91.914,418.136,91.87"/>
	<path d="M426.194,46.935h1.925v16.244l-0.355,21.7c0,3.903,1.581,7.158,4.747,9.765c3.163,2.61,7.507,3.914,13.027,3.914
		c1.523,0,3.012-0.121,4.461-0.361c1.453-0.243,3.105-0.735,4.963-1.482c1.57-1.494,3.404-3.229,5.497-5.209l2.569-2.373
		l-1.14-2.658c-1.519,0.308-2.767,0.515-3.739,0.624c-0.976,0.108-2.271,0.141-3.883,0.099c-2.662,0-4.692-0.58-6.092-1.742
		c-1.402-1.158-2.197-2.768-2.387-4.826c-0.144-1.224-0.214-5.21-0.214-11.954V46.738h6.909l6.982,0.13
		c0.477,0,0.999-0.044,1.567-0.13l1.211-8.867c-3.229,0.438-8.003,0.658-14.318,0.658h-2.352l0.642-11.494l0.498-7.553l0.714-6.832
		l-1.854-1.313c-5.796,2.496-8.811,3.789-9.049,3.875c-1.377,0.482-4.369,1.424-8.978,2.826c0.381,4.64,0.571,8.536,0.571,11.69
		v8.802c-0.95,0.693-1.948,1.341-2.991,1.948l-6.414,3.7v2.954C421.09,47,423.583,46.935,426.194,46.935"/>
	<path d="M510.834,96.468c3.087,0,8.55,0.088,16.387,0.262c10.306,0.22,15.889,0.329,16.742,0.329
		c6.081,0,10.567-0.109,13.467-0.329c1.376-0.13,2.753-0.371,4.13-0.723c0.047-0.831,0.263-3.326,0.642-7.485l1.781-13.269
		c0-0.218,0.073-0.94,0.215-2.167h-5.914c-0.902,4.291-1.828,8.1-2.777,11.427c-0.429,1.314-0.833,2.125-1.211,2.432
		c-0.381,0.306-1.544,0.592-3.492,0.854c-5.367,0.788-11.661,1.182-18.881,1.182c-2.375,0-6.839-0.153-13.394-0.458
		c-0.047-1.312-0.083-5.042-0.105-11.189c-0.026-6.147-0.062-12.349-0.108-18.605c-0.047-11.856-0.07-18.178-0.07-18.966
		c0-7.35,0.105-13.432,0.319-18.243c0.214-4.813,0.439-7.514,0.677-8.104c0.237-0.59,0.618-1.018,1.142-1.28
		c1.185-0.568,4.463-0.96,9.831-1.18v-5.78c-7.742,0.308-15.935,0.46-24.578,0.46c-7.743,0-14.632-0.152-20.662-0.46v5.78
		c6.209,0.22,9.862,0.658,10.961,1.312c0.525,0.266,0.885,0.658,1.076,1.182c0.43,1.182,0.723,5.89,0.882,14.117
		c0.078,3.24,0.119,11.775,0.119,25.607c0,9.412-0.097,17.477-0.286,24.196c-0.19,6.72-0.402,10.625-0.642,11.719
		c-0.046,0.262-0.165,0.504-0.355,0.723c-0.284,0.352-0.926,0.787-1.925,1.313c-2.23,1.226-3.965,2.078-5.199,2.561v3.375
		C499.102,96.664,506.178,96.468,510.834,96.468"/>
	<path d="M583.023,96.796c7.931,0,15.269,0.088,22.014,0.263v-5.122c-4.94-0.176-8.05-0.549-9.331-1.118
		c-0.571-0.263-0.952-0.786-1.14-1.576c-0.381-1.4-0.571-5.91-0.571-13.528V53.381c0-5.998,0.285-12.412,0.855-19.244l-1.711-0.853
		c-4.321,1.601-8.312,2.792-11.969,3.573c-3.657,0.779-9.072,1.515-16.244,2.206v4.992c5.509,0.045,8.739,0.352,9.689,0.921
		c0.428,0.264,0.735,0.833,0.926,1.709c0.428,1.885,0.642,9.691,0.642,23.416c0,9.997-0.237,16.2-0.712,18.611
		c-0.19,1.141-0.665,1.919-1.425,2.336c-0.761,0.416-3.801,0.801-9.12,1.15v4.86C570.152,96.884,576.184,96.796,583.023,96.796
		 M576.778,4.912c-2.106,1.97-3.158,4.334-3.158,7.092c0,2.803,1.063,5.189,3.193,7.159c2.13,1.97,4.688,2.956,7.669,2.956
		c3.032,0,5.6-0.986,7.705-2.956c2.106-1.97,3.161-4.356,3.161-7.159c0-2.758-1.055-5.123-3.161-7.092
		c-2.105-1.972-4.673-2.958-7.705-2.958C581.454,1.954,578.885,2.94,576.778,4.912"/>
	<path d="M626.619,96.878l24.295,0.328v-4.992c-6.175-0.438-9.403-0.68-9.688-0.723c-1.142-0.175-1.962-0.461-2.46-0.854
		c-0.498-0.396-0.867-0.901-1.103-1.515c-0.286-0.876-0.489-3.441-0.606-7.696c-0.119-4.252-0.178-8.724-0.178-13.417V47.027
		c4.131-0.13,6.627-0.196,7.48-0.196c0.286,0,1.473,0.042,3.562,0.13l7.195,0.132l1.141-5.846c0.141-0.788,0.331-1.553,0.568-2.298
		l-0.926-0.658c-2.991,0.192-6.531,0.327-10.615,0.403l-8.406,0.059v-9.108c0-6.988,0.285-11.356,0.854-13.104
		c0.38-1.179,1.14-2.118,2.28-2.817c1.614-0.959,3.8-1.441,6.554-1.441c1.899,0,3.467,0.23,4.702,0.688
		c1.235,0.46,2.565,1.304,3.989,2.528l2.851-1.181c-0.097-4.028,0.237-8.407,0.997-13.137C656.445,0.396,653.952,0,651.627,0
		c-2.279,0-4.323,0.319-6.126,0.954c-1.808,0.636-3.398,1.5-4.775,2.594l-8.62,7.094c-5.368,4.29-8.833,7.4-10.4,9.326
		c-0.952,1.182-1.641,2.408-2.068,3.678s-0.747,3.427-0.961,6.468c-0.214,3.045-0.321,5.595-0.321,7.653
		c0,0.656-0.309,1.182-0.925,1.576c-0.239,0.176-3.516,1.772-9.832,4.794v3.218l9.689-0.394l1.995,0.066V66.73
		c-0.097,11.998-0.311,19.134-0.642,21.411c-0.144,1.271-0.618,2.146-1.427,2.629c-1.044,0.613-4.369,1.094-9.974,1.443v4.992
		C617.167,96.986,623.627,96.878,626.619,96.878"/>
	<path d="M689.518,59.551c-6.555,0-11.232-0.196-14.036-0.589c-0.19-6.676,0.949-11.477,3.42-14.401
		c2.423-2.88,5.485-4.32,9.191-4.32c3.608,0,6.553,1.375,8.835,4.124c2.232,2.793,3.252,7.659,3.062,14.598
		C697.188,59.354,693.696,59.551,689.518,59.551 M715.237,84.376c-3.706,1.71-6.697,2.836-8.978,3.383s-4.773,0.821-7.48,0.821
		c-6.27,0-11.542-2.002-15.816-6.01c-4.273-4.006-6.603-9.468-6.98-16.388h4.698c0.762,0,1.45-0.021,2.068-0.064
		c0.615-0.042,3.847-0.088,9.689-0.131c5.843-0.044,10.545-0.196,14.106-0.458c1.14-0.044,3.324-0.352,6.554-0.921
		c2.423-0.437,4.228-0.831,5.415-1.182c0.096-1.138,0.143-2.32,0.143-3.546c0-5.43-0.844-10.048-2.528-13.858
		c-1.688-3.81-4.571-6.938-8.657-9.393c-4.085-2.451-9.31-3.678-15.676-3.678c-4.511,0-8.431,0.68-11.753,2.038
		c-1.808,0.744-4.703,2.32-8.691,4.728c-3.99,2.408-6.461,4.052-7.41,4.928c-1.521,1.4-2.851,3.676-3.99,6.83
		c-1.662,4.51-2.493,9.632-2.493,15.368c0,3.941,0.428,7.575,1.282,10.902c0.855,3.328,2.244,6.262,4.169,8.801
		c1.923,2.54,4.155,4.686,6.696,6.437c2.54,1.751,5.603,3.132,9.19,4.138c3.585,1.006,7.73,1.51,12.432,1.51
		c3.943,0,7.457-0.372,10.544-1.114c4.133-1.052,8.146-2.671,12.041-4.861l3.135-6.437L715.237,84.376z"/>
</g>
</svg>
