<svg id="Layer_1" data-name="Layer 1" xmlns="http://www.w3.org/2000/svg" viewBox="0 0 749.11 84.11"><defs><style>.cls-1{fill:#fff;}</style></defs><path class="cls-1" d="M2.91,5.35H23.15l15.9,37.2,9.6-24.71-5-12.49h20L79.4,42.41,93.86,5.35H114L81.11,86.84H78.48L59,41.36,40.24,86.84h-2.5ZM56.4,35.45l-5-11.3L42,48.2l4.73,11.17ZM87.16,59.63,107.66,9H97.54L82.16,47.93Z" transform="translate(-2.91 -2.72)"/><path class="cls-1" d="M121.59,5.35h19.18V54.77c0,10.51,5,14.19,11.7,14.19,7.36,0,12-3.68,12-14.19V5.35h19.32V57.66c0,18.66-13.93,29.18-31.28,29.18-18,0-30.88-11-30.88-29.18ZM136,37V9h-9.59V37Zm42.85,0V9h-9.73V37Z" transform="translate(-2.91 -2.72)"/><path class="cls-1" d="M229.88,5.35H249.2V84.21H229.88Zm14.45,75.18V52.4h-9.59V80.53Z" transform="translate(-2.91 -2.72)"/><path class="cls-1" d="M261.81,5.35h20.37L312.8,52.14V5.35H332V84.21h-20.1L281.13,37.29V84.21H261.81Zm14.46,75.18V32.43l-9.59-15.12V80.53Zm50.86-8.81V9h-9.46V57Z" transform="translate(-2.91 -2.72)"/><path class="cls-1" d="M378.12,5.35H429V22.44H397.44V39.26h29V56.08h-29V84.21H378.12Zm14.46,75.18V18.76L383,9v71.5Z" transform="translate(-2.91 -2.72)"/><path class="cls-1" d="M480.24,2.72c24.83,0,42.45,18.54,42.45,42.06s-17.62,42.06-42.45,42.06S437.79,68.3,437.79,44.78,455.27,2.72,480.24,2.72Zm0,80.17c18.92,0,33.25-12.61,36.79-29.83H506.91C503.76,64.49,494,72.64,480.24,72.64s-23.53-8.28-26.68-19.58H443.44C446.85,70.41,461.18,82.89,480.24,82.89Zm0-14.32c13.93,0,22.86-10.52,22.86-23.79S494.17,21,480.24,21s-22.87,10.52-22.87,23.79S466.17,68.57,480.24,68.57Z" transform="translate(-2.91 -2.72)"/><path class="cls-1" d="M580.91,2.72c15,0,25.36,5.66,33.77,14.46L601.41,29.8A29.31,29.31,0,0,0,580.91,21c-14.07,0-23.13,10.52-23.13,23.79s9.06,23.79,23.13,23.79a29.31,29.31,0,0,0,20.5-8.81l12.88,12.62a44.79,44.79,0,0,1-33.38,14.46c-25,0-42.72-18.54-42.72-42.06S555.94,2.72,580.91,2.72Zm20.37,21.69,7.49-7.23c-7-7.1-16-10.78-27.86-10.78V17.31A33.86,33.86,0,0,1,601.28,24.41Zm7.23,48.23L601,65a31.17,31.17,0,0,1-20.1,7.23V83.16C592.47,83.16,601.15,79.48,608.51,72.64Z" transform="translate(-2.91 -2.72)"/><path class="cls-1" d="M624,5.35H643.2V54.77c0,10.51,5,14.19,11.7,14.19,7.36,0,12-3.68,12-14.19V5.35h19.32V57.66c0,18.66-13.93,29.18-31.28,29.18-18,0-30.89-11-30.89-29.18ZM638.47,37V9h-9.59V37Zm42.84,0V9h-9.72V37Z" transform="translate(-2.91 -2.72)"/><path class="cls-1" d="M717.19,61.08a8.22,8.22,0,0,0,8.15,8.28c4.86,0,7.88-2.76,7.88-6.84,0-5.91-7.75-7.62-14.19-9.85-13.27-4.74-20.63-10.91-20.63-24.45,0-13.93,12-25.5,26.81-25.5C742.69,2.72,751,13.9,752,28.48H733.88c0-4.47-2.76-8.14-8.15-8.14-4.2,0-8.28,2.49-8.28,7.62,0,5.91,7.23,7,13.93,8.93C745.45,41.1,752,49,752,61.34c0,13.93-11.83,25.5-26.68,25.5-17.22,0-26.94-11.57-26.94-25.76Zm8.15,22.08V73c-6.7-.14-10.91-4-12.09-8.28H703C703.26,74.61,712.85,83.16,725.34,83.16ZM747.29,24.8c-.79-7.75-6.57-18.4-21.95-18.4V16.66c8.15,0,10.91,4.86,12.09,8.14Z" transform="translate(-2.91 -2.72)"/></svg>